inDegrees=yes
name=ik_S47_A02_T02
DataType=double
version=3
OpenSimVersion=4.3-2021-08-27-4bc7ad9
endheader
time	pelvis_tilt	pelvis_list	pelvis_rotation	pelvis_tx	pelvis_ty	pelvis_tz	hip_flexion_r	hip_adduction_r	hip_rotation_r	knee_angle_r	knee_angle_r_beta	ankle_angle_r	subtalar_angle_r	mtp_angle_r	hip_flexion_l	hip_adduction_l	hip_rotation_l	knee_angle_l	knee_angle_l_beta	ankle_angle_l	subtalar_angle_l	mtp_angle_l	lumbar_extension	lumbar_bending	lumbar_rotation	arm_flex_r	arm_add_r	arm_rot_r	elbow_flex_r	pro_sup_r	wrist_flex_r	wrist_dev_r	arm_flex_l	arm_add_l	arm_rot_l	elbow_flex_l	pro_sup_l	wrist_flex_l	wrist_dev_l
25.89999999999954	1.217589914859995	-1.971057605054694	-37.99230209299429	0	0.9399999999999999	0	7.611301336194474	-3.857423724848834	-2.86064839931544	10.08638051278134	0.1760405495570285	0	0	0	13.65536713113178	-2.766424890640276	-3.157116483606536	22.54761113734686	0.393530052806046	0	0	0	0	0	0	37.1310017880503	-37.1310017880503	4.761125107268231	81.81012977467796	85.23887515676198	0	0	37.1310017880503	-37.1310017880503	4.761125107268231	81.81012977467796	85.23887515671734	0	0
25.91999999999954	0.8598679330498263	-1.293887274004118	-40.96496557738416	0	0.9399999999999999	0	10.24576436155693	-3.581218610220862	-2.067033026750488	11.77447975835257	0.2055034394926786	0	0	0	14.86291124688981	-0.9452747691058486	-0.3330601706606975	24.07310318183737	0.4201549116953853	0	0	0	0	0	0	37.15428952139366	-37.15428952139366	4.762371753017003	81.82678825605743	85.23762851107128	0	0	37.15428952139366	-37.15428952139366	4.762371753017003	81.82678825605743	85.23762851102683	0	0
25.93999999999954	0.8640787721057414	-0.5282834667571655	-43.52502140278131	0	0.9399999999999999	0	12.34882018077827	-4.216638632099483	-2.345116743907405	13.39634467630709	0.2338103223335728	0	0	0	15.66570961786061	-0.2938366498642727	0.4192262426152487	26.50837426649367	0.4626584103012513	0	0	0	0	0	0	37.17744464619596	-37.17744464619596	4.763592535168233	81.84310020220992	85.23640772897672	0	0	37.17744464619596	-37.17744464619596	4.763592535168233	81.84310020220992	85.23640772893256	0	0
25.95999999999954	1.165399564522433	-0.2445730545378006	-45.88045082727974	0	0.9399999999999999	0	12.68733490445405	-4.782544617042825	-4.434142797158486	14.40988211611533	0.2514998877504603	0	0	0	15.85069665950175	-0.6509098263945747	-0.9572647769618012	25.48095218160121	0.4447265121121732	0	0	0	0	0	0	37.1998230944216	-37.1998230944216	4.764771603558659	81.85885470420592	85.23522866064093	0	0	37.1998230944216	-37.1998230944216	4.764771603558659	81.85885470420592	85.235228660597	0	0
25.97999999999954	1.357999039803122	-0.2119207480938029	-47.03721962318829	0	0.9399999999999999	0	12.42149621498517	-4.846968473261132	-4.231162049545099	14.83907439412598	0.258990706125881	0	0	0	15.02467397049312	0.3702675713128287	-1.982452628107105	23.55866240203223	0.4111762262812585	0	0	0	0	0	0	37.20288835164681	-37.20288835164681	4.764957000505353	81.86133308455614	85.23504326370305	0	0	37.20288835164681	-37.20288835164681	4.764957000505353	81.86133308455614	85.23504326365912	0	0
25.99999999999953	1.977554176086196	-1.211135820402126	-52.06078404754016	0	0.9399999999999999	0	11.38267558361269	-4.268766228855965	-3.806557788910302	16.08894473838384	0.2808050588562157	0	0	0	12.91385360229372	-0.5714399127656459	-5.595271299227334	21.14858178043084	0.3691123841958027	0	0	0	0	0	0	37.23406713462543	-37.23406713462543	4.766620161933202	81.88355684765068	85.23338010235257	0	0	37.23406713462543	-37.23406713462543	4.766620161933202	81.88355684765068	85.23338010230897	0	0
26.01999999999953	2.151781445138937	-1.803942528083125	-54.75433116110949	0	0.9399999999999999	0	10.4380999568737	-4.898793688592412	-6.832879230935821	17.38284602015437	0.3033878964188864	0	0	0	12.30164315015969	-1.382898206614865	-8.182663958363785	21.2456061307946	0.3708057785642587	0	0	0	0	0	0	37.26012014530371	-37.26012014530371	4.76799200444407	81.90188702344523	85.23200825990546	0	0	37.26012014530371	-37.26012014530371	4.76799200444407	81.90188702344523	85.23200825986213	0	0
26.03999999999953	2.102523365693217	-1.957758743444108	-57.30267422631863	0	0.9399999999999999	0	9.739287549366034	-5.194305403064898	-7.639092525123297	19.29484241992367	0.3367585288811384	0	0	0	10.88889157598888	-1.162555871812124	-8.268449176676809	19.54790314270651	0.3411752717011756	0	0	0	0	0	0	37.27832840520747	-37.27832840520747	4.768937958193577	81.91452600150296	85.23106230619982	0	0	37.27832840520747	-37.27832840520747	4.768937958193577	81.91452600150296	85.23106230615652	0	0
26.05999999999953	1.827615757166687	-1.889487167150399	-59.67896138329478	0	0.9399999999999999	0	9.299134865574342	-5.45245907035307	-7.695646636127372	20.30695120193412	0.3544231595155704	0	0	0	10.39971371200093	-1.431236693694814	-9.396119573552884	18.72198522240895	0.326760284640759	0	0	0	0	0	0	37.2997661127736	-37.2997661127736	4.770043950348954	81.92930288942566	85.22995631409563	0	0	37.2997661127736	-37.2997661127736	4.770043950348954	81.92930288942566	85.22995631405249	0	0
26.07999999999953	1.582010864072134	-1.789429668746561	-60.85162075481664	0	0.9399999999999999	0	8.721074682009741	-5.718540942387007	-8.750151834137839	21.18892687924945	0.3698165390072298	0	0	0	10.08841826762699	-1.385061450880118	-9.16087393470932	18.6862339757688	0.3261363076751959	0	0	0	0	0	0	37.31591960082184	-37.31591960082184	4.770875048593965	81.94040687839056	85.22912521588903	0	0	37.31591960082184	-37.31591960082184	4.770875048593965	81.94040687839056	85.22912521584604	0	0
26.09999999999953	1.026068129478774	-1.6531854793773	-63.14311103212802	0	0.9399999999999999	0	8.425989220040458	-5.375934684139413	-8.579551608304484	21.73631041420187	0.3793701839633551	0	0	0	9.93979532526129	-1.723357285116245	-10.30773023095998	16.64593811701563	0.2905264272251478	0	0	0	0	0	0	37.33620469457706	-37.33620469457706	4.771926357855203	81.95445335178364	85.22807390667646	0	0	37.33620469457706	-37.33620469457706	4.771926357855203	81.95445335178364	85.22807390663363	0	0
26.11999999999953	0.545449325414577	-1.685917491290599	-65.21443258933803	0	0.9399999999999999	0	8.568016520376519	-4.906025232440022	-7.452112577423403	22.52328543846112	0.3931054892676412	0	0	0	9.708763326723481	-2.29820606272088	-11.00543588825487	16.55895529096022	0.2890082905177915	0	0	0	0	0	0	37.33842879338158	-37.33842879338158	4.772059359567613	81.95623117774757	85.2279409049703	0	0	37.33842879338158	-37.33842879338158	4.772059359567613	81.95623117774757	85.22794090492754	0	0
26.13999999999953	0.2149937140259616	-1.890673232482045	-67.06495925941589	0	0.9399999999999999	0	7.789088843131748	-4.848285671265021	-7.69816925595897	22.43877379860062	0.3916304828958158	0	0	0	9.343519819636805	-2.878785436380716	-11.78574944940156	16.55125714309562	0.2888739324912489	0	0	0	0	0	0	37.35573156819726	-37.35573156819726	4.772937810075515	81.96796726991744	85.22706245450289	0	0	37.35573156819726	-37.35573156819726	4.772937810075515	81.96796726991744	85.22706245446032	0	0
26.15999999999953	-0.04071330038790345	-1.978579094358764	-68.7296345726112	0	0.9399999999999999	0	7.724108665773387	-4.573286449917389	-6.865350114276992	22.49558186492366	0.3926219706948441	0	0	0	9.118400697535092	-3.315036914970801	-12.44129760435204	15.75453359905404	0.2749684834195653	0	0	0	0	0	0	37.35808477304876	-37.35808477304876	4.77307827348997	81.9698448144598	85.22692199109511	0	0	37.35808477304876	-37.35808477304876	4.77307827348997	81.9698448144598	85.22692199105256	0	0
26.17999999999953	-0.4396718767883441	-1.919884416927392	-71.23582789979909	0	0.9399999999999999	0	3.888620463733008	-4.626817103138648	-11.20886894508652	19.14218012190953	0.3340940691371307	0	0	0	9.160851153964323	-4.002766384919751	-13.95647792555916	15.62881974993812	0.2727743628371371	0	0	0	0	0	0	37.38467792348919	-37.38467792348919	4.774467729781623	81.98840965467362	85.22553253486781	0	0	37.38467792348919	-37.38467792348919	4.774467729781623	81.98840965467362	85.22553253482555	0	0
26.19999999999953	-0.6958593753202524	-1.712002396040484	-73.00743116877139	0	0.9399999999999999	0	3.668916390775399	-5.09856827926002	-11.62334116785373	18.53137867599248	0.3234335728299362	0	0	0	9.309691362769627	-4.466107485555766	-15.67652544979559	15.64638812718997	0.2730809888644142	0	0	0	0	0	0	37.40604806445415	-37.40604806445415	4.775562127135877	82.00303117980216	85.22443813756409	0	0	37.40604806445415	-37.40604806445415	4.775562127135877	82.00303117980216	85.22443813752203	0	0
26.21999999999953	-0.8703907091190834	-1.477938245780511	-74.76343834141583	0	0.9399999999999999	0	3.435394368818169	-5.414332731339198	-12.05707670219483	17.86408225482687	0.3117870531938215	0	0	0	9.514409282202987	-4.920853748929103	-16.48356056060025	15.98233518706274	0.2789443711715886	0	0	0	0	0	0	37.42466520772257	-37.42466520772257	4.776516734651378	82.01578510831526	85.22348353009266	0	0	37.42466520772257	-37.42466520772257	4.776516734651378	82.01578510831526	85.22348353005081	0	0
26.23999999999953	-0.8870331872010428	-1.27179932958798	-76.48831974769209	0	0.9399999999999999	0	2.594346447497613	-4.747584579937598	-13.05007408001829	14.2495184673906	0.2487010140797022	0	0	0	9.893386703538912	-5.283456129794789	-16.74094904416651	16.19932682976919	0.2827315897861273	0	0	0	0	0	0	37.43633771172144	-37.43633771172144	4.777120838398329	82.02385641390026	85.22287942637368	0	0	37.43633771172144	-37.43633771172144	4.777120838398329	82.02385641390026	85.22287942633193	0	0
26.25999999999953	-0.8466786930969976	-1.211470865327019	-77.33293850044721	0	0.9399999999999999	0	1.624775668774457	-4.372762969417369	-15.13631897460958	13.37533207388306	0.2334435832368608	0	0	0	9.984598972323479	-5.649485556422133	-17.35128519222612	16.0049893627572	0.2793397611267823	0	0	0	0	0	0	37.44783391930932	-37.44783391930932	4.77772674076257	82.03195219180654	85.22227352403752	0	0	37.44783391930932	-37.44783391930932	4.77772674076257	82.03195219180654	85.22227352399591	0	0
26.27999999999953	-0.6445534982616538	-1.118077309143814	-78.91440758074178	0	0.9399999999999999	0	2.05955475335778	-4.795022932315565	-14.34000059762988	13.38374910714204	0.23359048818048	0	0	0	10.10559899259693	-5.927657526297899	-18.73849282000179	16.45543551673976	0.2872015296167232	0	0	0	0	0	0	37.4501073280752	-37.4501073280752	4.777861152054574	82.03374873886253	85.2221391127518	0	0	37.4501073280752	-37.4501073280752	4.777861152054574	82.03374873886253	85.22213911271022	0	0
26.29999999999953	-0.3407442923074763	-1.034339458708521	-80.40760346537284	0	0.9399999999999999	0	2.918450650020364	-5.026472525519496	-12.51019674901015	13.50687186724945	0.2357393857284974	0	0	0	10.51645592991854	-6.13120900180695	-19.655076202035	17.23402303703762	0.300790445360859	0	0	0	0	0	0	37.4533578987269	-37.4533578987269	4.778052911410862	82.03631178192418	85.22194735340459	0	0	37.4533578987269	-37.4533578987269	4.778052911410862	82.03631178192418	85.22194735336308	0	0
26.31999999999953	0.008122727673805293	-1.022606930778402	-81.91260690453807	0	0.9399999999999999	0	2.505696958149725	-5.116020455583666	-12.40501597077682	12.73949768906023	0.2223461797243097	0	0	0	11.18810105017491	-6.21621125353675	-19.87957861320277	18.99674961590792	0.3315558279745613	0	0	0	0	0	0	37.4548916935966	-37.4548916935966	4.778143542449878	82.03752315576644	85.22185672236991	0	0	37.4548916935966	-37.4548916935966	4.778143542449878	82.03752315576644	85.2218567223284	0	0
